<?xml version="1.0" encoding="UTF-8" standalone="no"?>
<svg
   fill="#d4a418"
   viewBox="0 0 448 512"
   version="1.1"
   id="svg1"
   sodipodi:docname="dice_6.svg"
   inkscape:version="1.3.2 (091e20e, 2023-11-25, custom)"
   xmlns:inkscape="http://www.inkscape.org/namespaces/inkscape"
   xmlns:sodipodi="http://sodipodi.sourceforge.net/DTD/sodipodi-0.dtd"
   xmlns="http://www.w3.org/2000/svg"
   xmlns:svg="http://www.w3.org/2000/svg">
  <defs
     id="defs1" />
  <sodipodi:namedview
     id="namedview1"
     pagecolor="#ffffff"
     bordercolor="#000000"
     borderopacity="0.25"
     inkscape:showpageshadow="2"
     inkscape:pageopacity="0.0"
     inkscape:pagecheckerboard="0"
     inkscape:deskcolor="#d1d1d1"
     inkscape:zoom="2.2910156"
     inkscape:cx="224.1364"
     inkscape:cy="256"
     inkscape:window-width="2560"
     inkscape:window-height="1369"
     inkscape:window-x="-8"
     inkscape:window-y="-8"
     inkscape:window-maximized="1"
     inkscape:current-layer="layer11" />
  <!--!Font Awesome Free 6.7.2 by @fontawesome - https://fontawesome.com License - https://fontawesome.com/license/free Copyright 2025 Fonticons, Inc.-->
  <g
     inkscape:groupmode="layer"
     id="layer11"
     inkscape:label="Layer 1">
    <rect
       style="fill:#1d1111;stroke-width:4.71685"
       id="rect1"
       width="326.49277"
       height="303.35892"
       x="74.639389"
       y="105.63" />
  </g>
  <g
     inkscape:groupmode="layer"
     id="layer12"
     inkscape:label="Layer 2">
    <path
       d="M0 96C0 60.7 28.7 32 64 32l320 0c35.3 0 64 28.7 64 64l0 320c0 35.3-28.7 64-64 64L64 480c-35.3 0-64-28.7-64-64L0 96zm160 64a32 32 0 1 0 -64 0 32 32 0 1 0 64 0zM128 288a32 32 0 1 0 0-64 32 32 0 1 0 0 64zm32 64a32 32 0 1 0 -64 0 32 32 0 1 0 64 0zM320 192a32 32 0 1 0 0-64 32 32 0 1 0 0 64zm32 64a32 32 0 1 0 -64 0 32 32 0 1 0 64 0zM320 384a32 32 0 1 0 0-64 32 32 0 1 0 0 64z"
       id="path1" />
  </g>
</svg>
